<svg width="24" height="16" viewBox="0 0 24 16" fill="none" xmlns="http://www.w3.org/2000/svg">
<path d="M10.4224 3.42069L14.3387 6.89524L18.2551 3.42069L19.4396 4.57931L15.584 8L19.4396 11.4207L18.2551 12.5793L14.3387 9.10476L10.4224 12.5793L9.23787 11.4207L13.0935 8L9.23787 4.57931L10.4224 3.42069Z" fill="#56575E"/>
<path fill-rule="evenodd" clip-rule="evenodd" d="M6.90841 0C6.59039 0 6.29019 0.136773 6.09495 0.370617L0.21708 7.41062C-0.0723608 7.75728 -0.0723592 8.24272 0.21708 8.58938L6.09495 15.6294C6.29019 15.8632 6.59039 16 6.90841 16H22.9695C23.5386 16 24 15.5702 24 15.04V0.96C24 0.429802 23.5386 0 22.9695 0H6.90841ZM1.9009 8L7.24442 1.6H22.2824V14.4H7.24442L1.9009 8Z" fill="#56575E"/>
</svg>
